<mxGraphModel arrows="1" connect="1" dx="1024" dy="592" fold="1" grid="1" gridSize="10" guides="1" math="0" page="1" pageHeight="1169" pageScale="1" pageWidth="827" shadow="0" tooltips="1"><root><mxCell id="WIyWlLk6GJQsqaUBKTNV-0"/><mxCell id="WIyWlLk6GJQsqaUBKTNV-1" parent="WIyWlLk6GJQsqaUBKTNV-0"/><mxCell id="WIyWlLk6GJQsqaUBKTNV-2" value="01_p2_InspectionOrchestration" style="rounded=1;whiteSpace=wrap;html=1;fontSize=12;glass=0;strokeWidth=1;shadow=0;" parent="WIyWlLk6GJQsqaUBKTNV-1" vertex="1"><mxGeometry x="1250" y="100" width="120" height="40" as="geometry"/></mxCell><mxCell id="WIyWlLk6GJQsqaUBKTNV-21" value="../shared/00_ExceptionHandler" style="rounded=1;whiteSpace=wrap;html=1;fontSize=12;glass=0;strokeWidth=1;shadow=0;" parent="WIyWlLk6GJQsqaUBKTNV-1" vertex="1"><mxGeometry x="156.25" y="200" width="120" height="40" as="geometry"/></mxCell><mxCell id="8sIUwhSZAv_JCLybafT7-2" style="edgeStyle=orthogonalEdgeStyle;rounded=0;orthogonalLoop=1;jettySize=auto;html=1;entryX=0.5;entryY=0;entryDx=0;entryDy=0;" edge="1" parent="WIyWlLk6GJQsqaUBKTNV-1" source="WIyWlLk6GJQsqaUBKTNV-2" target="WIyWlLk6GJQsqaUBKTNV-21"><mxGeometry relative="1" as="geometry"/></mxCell><mxCell id="WIyWlLk6GJQsqaUBKTNV-22" value="02_p2_GetProductivity" style="rounded=1;whiteSpace=wrap;html=1;fontSize=12;glass=0;strokeWidth=1;shadow=0;" parent="WIyWlLk6GJQsqaUBKTNV-1" vertex="1"><mxGeometry x="468.75" y="200" width="120" height="40" as="geometry"/></mxCell><mxCell id="8sIUwhSZAv_JCLybafT7-3" style="edgeStyle=orthogonalEdgeStyle;rounded=0;orthogonalLoop=1;jettySize=auto;html=1;entryX=0.5;entryY=0;entryDx=0;entryDy=0;" edge="1" parent="WIyWlLk6GJQsqaUBKTNV-1" source="WIyWlLk6GJQsqaUBKTNV-2" target="WIyWlLk6GJQsqaUBKTNV-22"><mxGeometry relative="1" as="geometry"/></mxCell><mxCell id="WIyWlLk6GJQsqaUBKTNV-23" value="02_p2_GetToteQuantity" style="rounded=1;whiteSpace=wrap;html=1;fontSize=12;glass=0;strokeWidth=1;shadow=0;" parent="WIyWlLk6GJQsqaUBKTNV-1" vertex="1"><mxGeometry x="781.25" y="200" width="120" height="40" as="geometry"/></mxCell><mxCell id="8sIUwhSZAv_JCLybafT7-4" style="edgeStyle=orthogonalEdgeStyle;rounded=0;orthogonalLoop=1;jettySize=auto;html=1;entryX=0.5;entryY=0;entryDx=0;entryDy=0;" edge="1" parent="WIyWlLk6GJQsqaUBKTNV-1" source="WIyWlLk6GJQsqaUBKTNV-2" target="WIyWlLk6GJQsqaUBKTNV-23"><mxGeometry relative="1" as="geometry"/></mxCell><mxCell id="WIyWlLk6GJQsqaUBKTNV-24" value="02_p2_GetIssues" style="rounded=1;whiteSpace=wrap;html=1;fontSize=12;glass=0;strokeWidth=1;shadow=0;" parent="WIyWlLk6GJQsqaUBKTNV-1" vertex="1"><mxGeometry x="1093.75" y="200" width="120" height="40" as="geometry"/></mxCell><mxCell id="8sIUwhSZAv_JCLybafT7-5" style="edgeStyle=orthogonalEdgeStyle;rounded=0;orthogonalLoop=1;jettySize=auto;html=1;entryX=0.5;entryY=0;entryDx=0;entryDy=0;" edge="1" parent="WIyWlLk6GJQsqaUBKTNV-1" source="WIyWlLk6GJQsqaUBKTNV-2" target="WIyWlLk6GJQsqaUBKTNV-24"><mxGeometry relative="1" as="geometry"/></mxCell><mxCell id="WIyWlLk6GJQsqaUBKTNV-25" value="02_p2_GetIssueInstructions" style="rounded=1;whiteSpace=wrap;html=1;fontSize=12;glass=0;strokeWidth=1;shadow=0;" parent="WIyWlLk6GJQsqaUBKTNV-1" vertex="1"><mxGeometry x="1406.25" y="200" width="120" height="40" as="geometry"/></mxCell><mxCell id="8sIUwhSZAv_JCLybafT7-6" style="edgeStyle=orthogonalEdgeStyle;rounded=0;orthogonalLoop=1;jettySize=auto;html=1;entryX=0.5;entryY=0;entryDx=0;entryDy=0;" edge="1" parent="WIyWlLk6GJQsqaUBKTNV-1" source="WIyWlLk6GJQsqaUBKTNV-2" target="WIyWlLk6GJQsqaUBKTNV-25"><mxGeometry relative="1" as="geometry"/></mxCell><mxCell id="WIyWlLk6GJQsqaUBKTNV-251" value="03_p1_GetFlow" style="rounded=1;whiteSpace=wrap;html=1;fontSize=12;glass=0;strokeWidth=1;shadow=0;" parent="WIyWlLk6GJQsqaUBKTNV-1" vertex="1"><mxGeometry x="1406.25" y="300" width="120" height="40" as="geometry"/></mxCell><mxCell id="8sIUwhSZAv_JCLybafT7-7" style="edgeStyle=orthogonalEdgeStyle;rounded=0;orthogonalLoop=1;jettySize=auto;html=1;entryX=0.5;entryY=0;entryDx=0;entryDy=0;" edge="1" parent="WIyWlLk6GJQsqaUBKTNV-1" source="WIyWlLk6GJQsqaUBKTNV-25" target="WIyWlLk6GJQsqaUBKTNV-251"><mxGeometry relative="1" as="geometry"/></mxCell><mxCell id="WIyWlLk6GJQsqaUBKTNV-2511" value="04_p1_GetComponents" style="rounded=1;whiteSpace=wrap;html=1;fontSize=12;glass=0;strokeWidth=1;shadow=0;" parent="WIyWlLk6GJQsqaUBKTNV-1" vertex="1"><mxGeometry x="1328.125" y="400" width="120" height="40" as="geometry"/></mxCell><mxCell id="8sIUwhSZAv_JCLybafT7-8" style="edgeStyle=orthogonalEdgeStyle;rounded=0;orthogonalLoop=1;jettySize=auto;html=1;entryX=0.5;entryY=0;entryDx=0;entryDy=0;" edge="1" parent="WIyWlLk6GJQsqaUBKTNV-1" source="WIyWlLk6GJQsqaUBKTNV-251" target="WIyWlLk6GJQsqaUBKTNV-2511"><mxGeometry relative="1" as="geometry"/></mxCell><mxCell id="WIyWlLk6GJQsqaUBKTNV-25111" value="00_GetShoeCare" style="rounded=1;whiteSpace=wrap;html=1;fontSize=12;glass=0;strokeWidth=1;shadow=0;" parent="WIyWlLk6GJQsqaUBKTNV-1" vertex="1"><mxGeometry x="1328.125" y="500" width="120" height="40" as="geometry"/></mxCell><mxCell id="8sIUwhSZAv_JCLybafT7-9" style="edgeStyle=orthogonalEdgeStyle;rounded=0;orthogonalLoop=1;jettySize=auto;html=1;entryX=0.5;entryY=0;entryDx=0;entryDy=0;" edge="1" parent="WIyWlLk6GJQsqaUBKTNV-1" source="WIyWlLk6GJQsqaUBKTNV-2511" target="WIyWlLk6GJQsqaUBKTNV-25111"><mxGeometry relative="1" as="geometry"/></mxCell><mxCell id="WIyWlLk6GJQsqaUBKTNV-2512" value="02_ConditionResolver" style="rounded=1;whiteSpace=wrap;html=1;fontSize=12;glass=0;strokeWidth=1;shadow=0;" parent="WIyWlLk6GJQsqaUBKTNV-1" vertex="1"><mxGeometry x="1484.375" y="400" width="120" height="40" as="geometry"/></mxCell><mxCell id="8sIUwhSZAv_JCLybafT7-10" style="edgeStyle=orthogonalEdgeStyle;rounded=0;orthogonalLoop=1;jettySize=auto;html=1;entryX=0.5;entryY=0;entryDx=0;entryDy=0;" edge="1" parent="WIyWlLk6GJQsqaUBKTNV-1" source="WIyWlLk6GJQsqaUBKTNV-251" target="WIyWlLk6GJQsqaUBKTNV-2512"><mxGeometry relative="1" as="geometry"/></mxCell><mxCell id="WIyWlLk6GJQsqaUBKTNV-26" value="../shared/00_ValidateToken" style="rounded=1;whiteSpace=wrap;html=1;fontSize=12;glass=0;strokeWidth=1;shadow=0;" parent="WIyWlLk6GJQsqaUBKTNV-1" vertex="1"><mxGeometry x="1718.75" y="200" width="120" height="40" as="geometry"/></mxCell><mxCell id="8sIUwhSZAv_JCLybafT7-11" style="edgeStyle=orthogonalEdgeStyle;rounded=0;orthogonalLoop=1;jettySize=auto;html=1;entryX=0.5;entryY=0;entryDx=0;entryDy=0;" edge="1" parent="WIyWlLk6GJQsqaUBKTNV-1" source="WIyWlLk6GJQsqaUBKTNV-2" target="WIyWlLk6GJQsqaUBKTNV-26"><mxGeometry relative="1" as="geometry"/></mxCell><mxCell id="WIyWlLk6GJQsqaUBKTNV-27" value="02_p2_ActivteInfoStickers" style="rounded=1;whiteSpace=wrap;html=1;fontSize=12;glass=0;strokeWidth=1;shadow=0;" parent="WIyWlLk6GJQsqaUBKTNV-1" vertex="1"><mxGeometry x="2031.25" y="200" width="120" height="40" as="geometry"/></mxCell><mxCell id="8sIUwhSZAv_JCLybafT7-12" style="edgeStyle=orthogonalEdgeStyle;rounded=0;orthogonalLoop=1;jettySize=auto;html=1;entryX=0.5;entryY=0;entryDx=0;entryDy=0;" edge="1" parent="WIyWlLk6GJQsqaUBKTNV-1" source="WIyWlLk6GJQsqaUBKTNV-2" target="WIyWlLk6GJQsqaUBKTNV-27"><mxGeometry relative="1" as="geometry"/></mxCell><mxCell id="WIyWlLk6GJQsqaUBKTNV-28" value="__check_qa" style="rounded=1;whiteSpace=wrap;html=1;fontSize=12;glass=0;strokeWidth=1;shadow=0;" parent="WIyWlLk6GJQsqaUBKTNV-1" vertex="1"><mxGeometry x="2343.75" y="200" width="120" height="40" as="geometry"/></mxCell><mxCell id="8sIUwhSZAv_JCLybafT7-13" style="edgeStyle=orthogonalEdgeStyle;rounded=0;orthogonalLoop=1;jettySize=auto;html=1;entryX=0.5;entryY=0;entryDx=0;entryDy=0;" edge="1" parent="WIyWlLk6GJQsqaUBKTNV-1" source="WIyWlLk6GJQsqaUBKTNV-2" target="WIyWlLk6GJQsqaUBKTNV-28"><mxGeometry relative="1" as="geometry"/></mxCell></root></mxGraphModel>